<?xml version="1.0" encoding="utf-8"?>
<!-- Generator: Adobe Illustrator 16.0.0, SVG Export Plug-In . SVG Version: 6.00 Build 0)  -->
<!DOCTYPE svg PUBLIC "-//W3C//DTD SVG 1.1//EN" "http://www.w3.org/Graphics/SVG/1.1/DTD/svg11.dtd">
<svg version="1.1" id="chief_logo" xmlns="http://www.w3.org/2000/svg" xmlns:xlink="http://www.w3.org/1999/xlink" x="0px" y="0px"
	 width="482.204px" height="216.274px" viewBox="65.212 288.353 482.204 216.274"
	 enable-background="new 65.212 288.353 482.204 216.274" xml:space="preserve">
<g>
	<g>
		<path fill="#FFFFFF" d="M309,354.4L309,354.4c1,0.1,2,0,3-0.1l0.9-0.2c0.699-0.1,1.199-0.1,1.8-0.3l1-0.2
			c3.399-0.8,6.399-2.5,8.899-5c2.7-2.7,4.2-5.6,4.601-8.7l0.5-3.4c0.399-3.3-0.601-6.2-3-8.3c-1.5-1.3-3.5-2.1-5.7-2.3
			c-1.3-0.1-2.7,0-4.1,0.3c-3.5,0.7-6.601,2.4-9.301,5.1c-2.1,2.1-3.5,4.3-4.3,6.5c-0.4,0.9-3.6,8.7-0.5,13.2
			C303.6,352.6,305.4,354.2,309,354.4z"/>
		<path fill="#FFFFFF" d="M545.6,383.9c-1.899-4-11.3-10.2-30.1-10.2c-33,0-63.1,12.4-84,23.7c-1.7,0.399-2.2-0.7-2.3-1.7
			c0.3-2.4,0.6-4.7,0.899-7.1c3.7-29.3,7.2-55.7,7.601-59.7l-0.101-0.1l0.2-1.2c0.101-0.7,0.2-1.4,0.3-2c0-0.6,1.9-28.8,15.101-27.5
			c12.8,1.3,9.399,22.8,8.399,29.3c-0.8,5.2-2.199,17.3-8.399,25.6c-0.101,0.1-0.101,0.1-0.2,0.2c-0.1,0.1-0.1,0.2-0.2,0.3
			c-1,1.4-2,2.5-2.899,3.4c-0.101,0.1-0.301,0.3-0.4,0.4c-0.5,0.5-1,0.9-1.4,1.3c-0.399,0.4-0.8,0.7-1,1c-0.8,0.9-1.699,1.7-2.5,2.5
			c-0.199,0.2,0,0.2-0.199,0.4l-0.4,0.4c0,0-2.2,1.9-1.7,5.2c0.5,3.3,4.3,1.1,6.601,0.2c0.199-0.1,0.5-0.2,0.8-0.2
			c11.6-6.7,32.899-21.4,34.899-42.7c4-42.9-33.8-36.9-35.5-36.6c-32.5,4.4-37,51.2-37.1,51.7c0,0.1-0.6,6.1-0.7,6.8
			c-0.1,1.2-0.7,6.6-1.6,14.2l-0.4,3.4c-1.6,14.5-3,26.5-4.1,36.2c-0.8,3.7-2.2,5.5-2.8,6.101c-9.801,7.399-25.301,17.7-35.2,17.7
			h-0.4c-4.7-0.301-8.2-1.801-10.5-4.601c-2.2-2.7-2.8-9.8-2.399-14.899c0.3-1.801,1.399-2.5,2.1-2.7c0.1,0,0.3-0.101,0.4-0.101
			c0.1,0,0.199,0,0.199,0l0,0c8.2-2,18-4.199,24.2-5.899c4.2-1.1,7.9-2.3,10.601-4.9c2.1-2.1,3.5-5.9,4.6-12.4
			c1.6-9.8-0.3-20.8-4.9-25.9c-5.6-6.3-13.1-9.4-20.3-8.8c-22.7,1.9-31.6,18.8-36.7,41.7c-2.199,9.7-2.3,17.5-1.399,23.9l0,0
			c0,0,0.6,2.3-2.2,5.7c-2,2-4.2,4.2-5.9,6l0,0c-0.399,0.4-0.899,0.9-1.3,1.4c-6.899,7.399-6-0.601-6-0.601l0.3-2.1
			c0.301-2.4,0.601-5.2,0.9-8.101v-0.1c0.3-2.8,0.7-6.3,1.1-9.7h-0.1c0.3-2.7,0.1-3,0.4-5.6V397c0.6-6,1.8-19.8,2.399-24.1
			c0.4-2.9-0.5-5.5-2.5-7.1c-1.5-1.2-3.1-1.6-5.399-1.4c-0.801,0.1-1.7,0.3-2.7,0.6c-0.601,0.2-9.8,2.8-10.9,11.5l-4.4,39.3
			c0,0.101-0.6,3.101-1.1,7.2c-0.4,1.4-1,3-2.1,4.6c-1.5,1.801-3.2,3.801-5.1,5.9l0,0c-0.4,0.5-0.9,1-1.3,1.5c-6.9,8.1-6-0.1-6-0.1
			l0.3-2.101c0.3-2.399,0.6-5.2,0.9-8.1V424.6c0.7-6.1,1.8-16,2.1-19.3l0.1-3c0.3-3.7,0.2-7.2-0.4-10.5c-0.6-3.5-2-6.6-3.9-9.2
			c-2.1-2.7-4.8-5.3-8.5-6c-16-2.8-24.8,9.7-24.8,9.7l0.6-4.8c0.2-1.9,0.4-3.7,0.5-4.9c0.5-4.5,2.4-26.8,2.7-29.4
			c0.3-2.7-0.7-5.1-2.7-6.8c-1.8-1.5-4.3-2.1-7.3-1.8c-0.3,0-0.7,0.1-1,0.2l-0.3,0.1c-3.3,0.6-9.7,4.2-10.3,10.1
			c-1.6,14.2-4.7,44.7-6.6,59.2c-1.1,8.8-2.2,17.3-3.2,25c-0.6,4.2-2.7,7.6-3,8c-5.1,6.5-11.5,13.5-19.8,18.3l0,0
			c-8,5.8-21.1,7-24.6,7.2l0,0l0,0c-0.5,0-0.8,0-0.8,0l0,0c-21.9,0-27.6-23.3-23-65.3l0,0v-0.2l0.1-1.5c0,0,3.6,0.2,6.1,0.2
			l1.7-0.101c2.1-0.1,4.2-0.2,6.1-0.3c8-0.6,48.4-5,56.5-36.9v-0.1c2.6-13.2-2.2-23-6.7-28.9c-6.3-8.2-15.8-13.9-24.9-15
			c-1.7-0.2-3.5-0.3-5.2-0.3c-22.3-0.1-38.3,20-39.8,22.2c-2,2.6-3.8,5.4-5.5,8.4c-5.6,9.2-12.7,23.2-16.7,39.7
			c-1.3-0.4-2.5-0.7-3.7-1.1c-9.9-3.3-16.6-8.3-19.8-15c-2.7-5.6-2.8-12-0.4-19.2c2.1-6.2,6.5-9.2,11.2-10.9
			c1.2-0.9,2.1-2.1,2.2-3.5c0-3.7-6.3-3.9-6.3-3.9l0.1-0.1c-1.5-0.1-3.1-0.2-4.8-0.2c-13.7,0-24.1,5.2-29.2,14.7
			c-3.9,7.2-4.6,14.9-2.2,21.7c3,8.3,10.5,15,21.9,19.4c7.5,2.9,17.5,5.3,29.3,6.9c-0.7,4.1-1.1,8.3-1.3,12.6
			c-1.3,33.5,5.9,50.9,18.4,61.9c1.1,1,2.2,1.8,3.3,2.699c0.1,0,0.1,0.101,0.2,0.101c0.3,0.2,0.6,0.5,1,0.7
			c1.2,0.8,2.4,1.6,3.6,2.399v-0.1c8.8,4.899,17.1,6.1,19,6.3c1.2,0.2,2.5,0.2,3.7,0.2l0,0c20.2,0,36.1-14,46.7-28.4l0,0
			c0,0,4.8-6.5,4.3,0.2c0,0.3,0,0.5,0,0.7c-0.2,2.7,0.9,5.2,3,7.2c2.1,2,5,3,8.4,2.899c3.3-0.1,6-1.2,8.3-3.2c2.2-2,3.5-4.399,3.7-7
			c0.8-9.399,2.6-30.5,3.6-41c0.1-0.8,0.2-1.8,0.3-2.899c0.2-2.3,0.5-5.5,1.1-8.7l0,0c0,0,4.1-17.1,13.6-17.3
			c8.9-0.2,6.3,12.399,6,13.899c-1,9.301-4.6,27.601-4.6,27.601s-4.5,24.3,0.8,27.899c5.4,3.601,13.6,4,24.8-8.399
			c2.7-3,4.8-5.4,6.5-7.2c1.1-0.9,2.4-1.3,3.3,0.3c0.1,0.3,0.2,0.601,0.3,0.9c0.1,0.2,0.2,0.399,0.4,0.7l0,0
			c0.5,0.8,1.3,1.699,2.6,2.5c5.4,2.8,13.2,2.1,23.5-9.4c3.5-3.9,7.601-8.5,10.7-12.2c1.3-1.1,3.3-2,4.9,1.101
			c0.3,0.6,0.699,1.1,1,1.399c4,5.8,8.699,8.4,10.399,8.8c2,0.601,4.3,0.9,6.601,1c1.899,0.101,3.899,0,5.899-0.199
			c3.3-0.4,6.5-1.101,9.5-2.101c7.7-2.7,17.3-7.6,25.5-13l0,0c0,0,7-4.8,6.4,0.101c-0.101,0.5-0.101,0.899,0,1.199
			c-1.101,9.301-1.601,14-1.601,15.101c0,0-5.3,53.5-17.699,54c-7.7,0.3-10.801-13.8-3.9-32.9c0,0,4.5-9.5,10.8-13.6
			c5-3.3,5.8-4.3,4-5.8s-14.2,1.8-20.3,3.199c-10.4,2.2-23.2,5.601-34.3,8.801V450.3c0,0-0.601,0.2-1.601,0.5
			c-9.399,2.8-18.699,5.9-27.699,9.5c-1.801,0.7-3.601,1.5-5.3,2.2c-18.8,7.1-39.8,18-55,27.3c-30.7,18.7-7.7,14.4-7.7,14.4
			s20.4-3.7,37.1-13.4c8.6-5,49.2-30.899,85.9-40.1l0,0c0,0,1.5-0.3-0.5,2.399c-0.101,0.101-0.101,0.2-0.2,0.301
			c-2.5,3.3-19.7,23.3-7.8,39.3c3.6,4.8,10,8.399,17.399,8.8c0.4,0,0.8,0,1.2,0h0.6c18,0.1,33.9-10.4,39.2-24.9
			c0.5-1.399,1.101-2.899,1.7-4.5c4-11.5,6.4-35.3,9.6-59.399c0.4-1.2,1.5-3.4,4.101-5.101c29-13.399,64.2-25.399,79.3-12.899
			c15.1,12.6-13.3,23.3-37.5,29.2c-8.6,2.399-11.7,2.5-23.6,4.5c-5.9,1.199-11.2,2-15.101,2.6c-1.5,0.4-3.7,1.4-3.5,3.4
			c0.2,2.199,3.101,2.8,4.8,2.899c23.7-1.899,86.4-13.6,105.9-32.8c0,0,2-2.1,3.2-3.7C548.1,395.6,548.2,389.5,545.6,383.9z
			 M150.4,386.3c7.2-36.2,24.4-52,24.4-52s4.1-4.6,8.6-4.7c0,0,5.1-0.5,8.6,4.4c4.9,6.7,8.2,20.6,4.6,33.1l-0.1,0.2
			c-8,19.8-25.3,23.7-37.7,24.9l-1.7,0.2c-0.4,0-0.8,0.1-1.2,0.1h-0.1l0,0c-3.6,0.3-6.8-0.1-6.8-0.1L150.4,386.3L150.4,386.3z
			 M358.7,377.6c1.8-8,7-23.5,12.7-23.5h0.3c0.8,0,1.6,0.1,2.3,0.6c6.4,3,4.2,20.9,3.6,24.3c-0.1,0.5-0.199,1-0.3,1.5
			c-0.1,0.4-0.2,0.8-0.3,1.3c-1,5.2-3.4,7.5-4.8,8.4l-13.4,5c-0.1,0-0.3,0.1-0.6,0.2c-2.3,0.7-2.5-0.4-2.5-1l0.2-1.3
			C356,392.9,357.5,382.3,358.7,377.6z"/>
	</g>
</g>
</svg>
